<svg width="25" height="25" viewBox="0 0 25 25" fill="none" xmlns="http://www.w3.org/2000/svg">
<circle cx="12.5" cy="12.5" r="12" fill="#CFCDE5" stroke="#3D3799"/>
<path d="M6.81481 8.27273L8.57475 11.2472H8.64293L10.4114 8.27273H12.4952L9.83185 12.6364L12.5549 17H10.4327L8.64293 14.0213H8.57475L6.78498 17H4.67134L7.40288 12.6364L4.72248 8.27273H6.81481ZM13.6628 17V8.27273H17.106C17.7679 8.27273 18.3319 8.39915 18.7978 8.65199C19.2637 8.90199 19.6188 9.25 19.8631 9.69602C20.1103 10.1392 20.2338 10.6506 20.2338 11.2301C20.2338 11.8097 20.1088 12.321 19.8588 12.7642C19.6088 13.2074 19.2466 13.5526 18.7722 13.7997C18.3006 14.0469 17.7296 14.1705 17.0591 14.1705H14.8645V12.6918H16.7608C17.1159 12.6918 17.4086 12.6307 17.6387 12.5085C17.8716 12.3835 18.0449 12.2116 18.1586 11.9929C18.275 11.7713 18.3333 11.517 18.3333 11.2301C18.3333 10.9403 18.275 10.6875 18.1586 10.4716C18.0449 10.2528 17.8716 10.0838 17.6387 9.96449C17.4057 9.84233 17.1103 9.78125 16.7523 9.78125H15.508V17H13.6628Z" fill="#3D3799"/>
</svg>
